<mxfile host="app.diagrams.net" modified="2024-01-17T14:04:18.338Z" agent="Mozilla/5.0 (Macintosh; Intel Mac OS X 10_15_7) AppleWebKit/537.36 (KHTML, like Gecko) Chrome/120.0.0.0 Safari/537.36" version="22.1.19" etag="KVrkRyPyR5SD9hPGVmaw" type="github">
  <diagram name="Page-1" id="W7Krc9Kx8R1J0cXa9oBJ">
    <mxGraphModel>
      <root>
        <mxCell id="0" />
        <mxCell id="1" parent="0" />
      </root>
    </mxGraphModel>
  </diagram>
</mxfile>
